<?xml version="1.0" standalone="no"?>
<!DOCTYPE svg PUBLIC "-//W3C//DTD SVG 20010904//EN"
 "http://www.w3.org/TR/2001/REC-SVG-20010904/DTD/svg10.dtd">
<svg version="1.0" xmlns="http://www.w3.org/2000/svg"
 width="600.000000pt" height="398.000000pt" viewBox="0 0 600.000000 398.000000"
 preserveAspectRatio="xMidYMid meet">

<g transform="translate(0.000000,398.000000) scale(0.100000,-0.100000)"
fill="#000000" stroke="none">
<path d="M520 2647 c-13 -7 -35 -28 -47 -46 l-23 -34 0 -526 c0 -504 1 -527
20 -558 41 -68 -170 -63 2452 -63 2279 0 2375 1 2407 18 19 10 43 34 53 53 17
31 18 68 17 544 0 368 -3 520 -12 545 -7 19 -27 44 -46 57 l-34 23 -2381 0
c-1885 0 -2386 -3 -2406 -13z m3043 -64 c-144 -2 -382 -2 -530 0 -147 1 -29 2
262 2 292 0 412 -1 268 -2z m-2980 -140 c4 -71 7 -176 7 -235 l0 -108 -25 0
-25 0 0 223 c0 214 4 247 30 247 4 0 10 -57 13 -127z m85 95 c2 -19 10 -28 25
-30 16 -2 22 -10 22 -28 0 -23 -4 -25 -45 -25 l-45 0 -3 44 c-2 24 -1 50 2 58
10 24 41 11 44 -19z m1530 -110 l3 -138 -61 0 -60 0 0 133 c0 74 3 137 7 141
4 4 30 6 58 4 l50 -3 3 -137z m1570 0 l3 -138 -61 0 -60 0 0 133 c0 74 3 137
7 141 4 4 30 6 58 4 l50 -3 3 -137z m1457 82 l0 -55 -45 0 c-41 0 -45 2 -45
25 0 18 6 26 23 28 12 2 20 8 17 13 -10 15 15 50 33 47 14 -3 17 -15 17 -58z
m73 -178 c2 -227 2 -232 -18 -232 -19 0 -20 6 -20 108 0 185 12 363 24 359 7
-2 12 -79 14 -235z m-4353 198 c0 -25 -1 -25 -91 -28 -78 -2 -93 0 -98 14 -13
35 12 45 103 42 84 -3 86 -3 86 -28z m510 0 c0 -16 -6 -26 -18 -28 -19 -4 -32
20 -23 44 9 25 41 13 41 -16z m243 -16 c2 -32 -1 -43 -14 -48 -32 -12 -51 36
-31 77 15 33 42 16 45 -29z m2502 27 c13 -26 13 -43 -3 -65 -21 -28 -47 -10
-47 33 0 21 3 41 7 44 12 13 32 7 43 -12z m238 -9 c4 -28 -24 -40 -45 -19 -14
13 -14 19 -3 32 18 22 44 15 48 -13z m651 14 c6 -7 9 -21 5 -30 -5 -13 -22
-16 -95 -16 -93 0 -110 8 -95 45 8 21 168 22 185 1z m-3064 -36 l0 -25 -136
-3 c-143 -3 -168 4 -153 42 6 14 24 16 148 14 l141 -3 0 -25z m720 -80 l0
-105 -232 -3 -233 -2 0 110 0 110 233 -2 232 -3 0 -105z m825 0 l0 -110 -232
2 -233 3 -3 94 c-1 52 -1 100 2 108 4 10 54 13 236 13 l230 0 0 -110z m544 94
c14 -36 -11 -44 -139 -44 -68 0 -130 3 -139 6 -16 6 -22 35 -9 47 3 4 68 7
144 7 117 0 138 -2 143 -16z m-2576 -160 c2 -135 0 -163 -13 -174 -12 -10 -18
-10 -30 0 -12 10 -15 41 -15 160 0 82 3 156 6 165 4 9 15 15 28 13 20 -3 21
-9 24 -164z m2830 2 c3 -169 -3 -195 -39 -175 -17 9 -19 23 -19 168 0 87 3
161 7 165 4 4 16 6 28 4 19 -3 20 -11 23 -162z m-3000 130 c2 -10 -2 -22 -10
-27 -7 -5 -86 -9 -176 -9 -135 0 -164 3 -168 15 -4 8 -4 22 0 30 5 13 31 15
178 13 160 -3 173 -4 176 -22z m3475 12 c2 -7 0 -21 -5 -30 -8 -16 -26 -18
-168 -18 -87 0 -165 3 -174 6 -16 6 -22 35 -9 47 3 4 84 7 179 7 129 0 173 -3
177 -12z m-3148 -118 c0 -54 -27 -69 -46 -26 -16 33 2 79 29 74 13 -3 17 -13
17 -48z m2505 31 c13 -26 13 -43 -3 -65 -21 -28 -47 -10 -47 33 0 21 3 41 7
44 12 13 32 7 43 -12z m-3352 -23 c19 -19 16 -193 -4 -213 -12 -12 -19 -13
-30 -4 -10 8 -14 38 -14 114 0 56 3 105 7 108 10 11 28 8 41 -5z m290 0 c16
-16 16 -200 0 -216 -16 -16 -200 -16 -216 0 -13 13 -17 183 -6 212 5 13 24 16
108 16 66 0 106 -4 114 -12z m300 -97 c2 -67 -1 -108 -9 -117 -15 -18 -199
-20 -217 -2 -13 13 -17 183 -6 212 5 14 23 16 118 14 l111 -3 3 -104z m440
-19 l3 -122 -26 0 -25 0 0 118 c0 65 3 122 7 126 4 4 14 5 23 4 12 -3 15 -25
18 -126z m98 104 c3 -15 16 -27 31 -30 18 -5 24 -12 21 -29 -3 -19 -10 -22
-55 -25 l-53 -3 0 49 c0 27 3 52 7 55 15 16 43 6 49 -17z m1952 -34 l3 -53
-53 3 c-45 3 -53 6 -53 23 0 11 10 24 22 30 12 5 25 20 28 33 4 17 12 22 28
20 19 -3 22 -10 25 -56z m90 46 c14 -14 17 -205 3 -226 -5 -8 -17 -12 -27 -10
-17 3 -19 15 -22 112 -1 61 0 116 2 123 7 16 28 17 44 1z m626 -4 c11 -29 7
-199 -6 -212 -15 -15 -181 -16 -209 -2 -17 10 -19 22 -19 114 0 56 3 106 7
109 3 4 55 7 114 7 88 0 108 -3 113 -16z m294 -93 c2 -67 -1 -108 -9 -117 -8
-10 -37 -14 -105 -14 -121 0 -124 3 -124 120 0 49 3 96 6 104 5 14 23 16 118
14 l111 -3 3 -104z m107 -6 c0 -99 -2 -110 -19 -113 -29 -6 -36 16 -36 114 0
92 9 118 40 112 12 -3 15 -23 15 -113z m-4365 66 c16 -30 12 -97 -6 -116 -26
-26 -44 -1 -44 59 0 68 27 99 50 57z m4535 -51 c0 -60 -2 -65 -22 -68 -13 -2
-23 0 -24 5 0 4 -2 28 -4 52 -4 52 9 84 33 79 14 -3 17 -15 17 -68z m-3520
-65 c0 -64 -2 -70 -21 -73 -19 -3 -22 3 -28 52 -8 61 5 99 32 94 14 -3 17 -16
17 -73z m2503 58 c12 -25 14 -105 3 -121 -4 -8 -17 -12 -27 -10 -16 3 -20 14
-22 62 -2 32 -1 65 2 72 8 20 34 17 44 -3z m-1459 -57 c8 -9 11 -59 9 -152
l-3 -139 -232 -3 -233 -2 0 148 c0 82 3 152 7 155 3 4 104 7 223 7 173 0 220
-3 229 -14z m829 -144 l3 -152 -233 2 -233 3 -3 144 c-2 109 1 146 10 153 7 4
112 7 233 5 l220 -2 3 -153z m-2820 4 c5 -24 -14 -36 -56 -36 -34 0 -49 17
-38 46 9 23 90 15 94 -10z m240 0 c6 -28 -15 -36 -101 -36 -80 0 -97 9 -83 45
5 13 22 15 93 13 77 -3 88 -5 91 -22z m357 -6 l0 -25 -133 -3 c-111 -2 -133 0
-138 13 -3 8 -3 22 0 30 5 13 27 15 138 13 l133 -3 0 -25z m229 14 c11 -30
-13 -44 -74 -44 -70 0 -90 7 -90 29 0 28 9 31 86 31 57 0 73 -3 78 -16z m162
1 c11 -27 -16 -45 -68 -45 -50 0 -67 13 -54 45 8 21 114 21 122 0z m159 -15
c0 -23 -4 -25 -51 -28 -55 -3 -79 12 -68 42 5 14 18 16 63 14 52 -3 56 -5 56
-28z m181 15 c10 -26 -16 -45 -61 -45 -55 0 -75 8 -75 29 0 27 9 31 72 31 43
0 60 -4 64 -15z m1832 -9 c5 -25 -14 -36 -69 -36 -50 0 -76 18 -65 45 4 13 19
15 68 13 52 -2 63 -6 66 -22z m168 9 c10 -25 -16 -45 -56 -45 -50 0 -70 8 -70
29 0 27 9 31 67 31 39 0 55 -4 59 -15z m162 -9 c5 -25 -14 -36 -64 -36 -45 0
-70 19 -60 45 4 13 18 15 63 13 47 -2 58 -6 61 -22z m200 0 c6 -27 -15 -36
-84 -36 -65 0 -90 14 -78 44 5 14 19 16 83 14 65 -3 76 -6 79 -22z m337 -6 l0
-25 -115 -3 c-63 -1 -125 0 -137 3 -22 5 -31 34 -16 49 4 3 66 5 137 4 l131
-3 0 -25z m270 0 c0 -24 -2 -25 -81 -28 -85 -3 -113 9 -100 43 5 13 22 15 93
13 86 -3 88 -3 88 -28z m150 0 c0 -19 -6 -26 -24 -28 -38 -6 -71 7 -71 27 0
27 10 32 55 29 35 -3 40 -6 40 -28z m-3511 -66 c23 -9 22 -80 -1 -88 -18 -7
-43 17 -43 42 0 14 18 52 25 52 2 0 10 -3 19 -6z m2514 -6 c30 -30 4 -96 -32
-82 -19 7 -23 80 -3 87 19 8 22 8 35 -5z m-3480 -53 c1 -22 8 -50 14 -62 8
-17 8 -32 0 -60 -7 -21 -13 -51 -14 -67 -7 -68 -68 -54 -68 15 0 22 -5 48 -12
58 -9 15 -9 25 0 46 7 14 12 39 12 55 0 47 10 61 39 58 23 -3 26 -8 29 -43z
m487 15 l0 -25 -141 -3 c-120 -2 -143 0 -148 13 -3 8 -3 22 0 30 5 13 28 15
148 13 l141 -3 0 -25z m330 0 l0 -25 -141 -3 c-120 -2 -143 0 -148 13 -3 8 -3
22 0 30 5 13 28 15 148 13 l141 -3 0 -25z m490 0 l0 -25 -123 -3 c-102 -2
-123 0 -128 13 -3 8 -3 22 0 30 5 13 26 15 128 13 l123 -3 0 -25z m2050 0 l0
-25 -123 -3 c-102 -2 -123 0 -128 13 -3 8 -3 22 0 30 5 13 26 15 128 13 l123
-3 0 -25z m530 20 c3 -6 3 -19 0 -30 -6 -19 -15 -20 -139 -20 -106 0 -136 3
-146 15 -7 8 -10 22 -6 30 4 12 30 15 145 15 83 0 142 -4 146 -10z m330 0 c3
-6 3 -19 0 -30 -6 -19 -15 -20 -139 -20 -106 0 -136 3 -146 15 -7 8 -10 22 -6
30 4 12 30 15 145 15 83 0 142 -4 146 -10z m259 -6 c3 -9 6 -29 6 -44 0 -16 5
-41 12 -55 9 -21 9 -31 0 -46 -7 -10 -12 -37 -12 -59 0 -44 -23 -65 -53 -49
-12 7 -17 23 -17 54 0 24 -4 47 -10 50 -5 3 -10 17 -10 30 0 13 5 27 10 30 6
3 10 25 10 49 0 23 3 46 7 49 12 13 51 7 57 -9z m-4604 -209 c0 -96 -3 -125
-13 -125 -30 0 -37 25 -37 137 l0 113 25 0 25 0 0 -125z m4714 12 c-1 -118 -5
-137 -30 -137 -11 0 -14 23 -14 125 0 123 0 125 23 125 22 0 22 -2 21 -113z
m-3766 -35 c2 -49 0 -64 -13 -68 -28 -11 -45 15 -45 71 0 58 5 67 35 63 17 -3
20 -11 23 -66z m2830 7 c2 -41 -1 -59 -13 -69 -26 -22 -45 5 -45 65 0 58 5 67
35 63 17 -3 20 -11 23 -59z m-3330 -16 c2 -45 7 -63 16 -63 19 0 29 -30 12
-36 -8 -3 -29 -4 -48 -2 l-33 3 -3 69 c-4 84 1 98 30 94 21 -3 23 -9 26 -65z
m350 43 c2 -10 -2 -22 -10 -27 -15 -10 -188 -12 -212 -3 -16 6 -22 35 -9 48 4
3 57 5 117 4 99 -3 111 -5 114 -22z m3312 0 c0 -32 -15 -36 -125 -36 -96 0
-124 11 -111 45 4 12 27 15 121 15 115 0 115 0 115 -24z m168 -58 l3 -78 -46
0 c-33 0 -45 4 -45 15 0 8 7 15 15 15 12 0 15 13 15 58 0 65 5 74 35 70 18 -3
20 -11 23 -80z m-3169 58 c7 -9 11 -38 9 -73 -3 -54 -5 -58 -28 -58 -23 0 -25
4 -28 59 -2 32 -1 65 2 72 7 18 30 18 45 0z m294 -7 c6 -9 7 -39 3 -73 l-8
-57 -116 3 -117 3 -3 59 c-5 90 -9 87 119 84 89 -2 114 -6 122 -19z m752 -54
l0 -70 -164 -3 c-125 -2 -166 1 -173 10 -12 20 -9 113 4 126 9 9 57 12 173 10
l160 -3 0 -70z m693 63 c13 -13 16 -106 4 -126 -7 -9 -48 -12 -173 -10 l-164
3 -3 49 c-6 100 -14 96 166 96 110 0 162 -4 170 -12z m657 -63 l0 -70 -115 0
-115 0 -3 59 c-5 90 -9 87 120 84 l113 -3 0 -70z m100 0 c0 -68 -1 -70 -25
-70 -23 0 -25 4 -28 58 -3 62 9 90 37 85 13 -3 16 -17 16 -73z m-1855 0 l0
-55 -142 0 -143 0 2 48 c0 26 1 50 2 55 1 4 64 7 141 7 l140 0 0 -55z m1456 0
l-1 -55 -142 0 -143 0 0 55 0 55 143 0 143 0 0 -55z m-3073 -37 c9 -26 -13
-48 -48 -48 -23 0 -37 6 -43 18 -16 29 -3 42 43 42 26 0 45 -5 48 -12z m4500
0 c9 -27 -6 -38 -48 -38 -26 0 -45 5 -48 13 -9 26 6 37 48 37 26 0 45 -5 48
-12z m-4273 -28 c0 -19 -7 -20 -94 -20 -90 0 -115 7 -101 30 3 6 48 10 101 10
87 0 94 -1 94 -20z m383 6 c3 -8 3 -17 0 -20 -11 -10 -211 -7 -218 4 -14 23
11 30 110 30 79 0 104 -3 108 -14z m140 0 c7 -19 -1 -26 -30 -26 -22 0 -31 19
-16 33 11 12 41 7 46 -7z m2957 -4 c0 -13 -7 -17 -27 -16 -16 0 -27 4 -25 7 1
4 2 12 2 17 0 6 11 10 25 10 17 0 25 -5 25 -18z m308 1 c3 -10 -24 -13 -112
-13 -100 0 -115 2 -109 15 4 13 24 15 111 13 73 -2 107 -7 110 -15z m359 0 c3
-8 -25 -13 -96 -15 -92 -3 -101 -1 -101 15 0 16 9 17 97 15 63 -2 98 -7 100
-15z m-2658 -90 c41 -46 13 -124 -49 -138 -79 -17 -137 80 -87 144 31 38 99
36 136 -6z m181 -48 c0 -75 -2 -85 -18 -85 -9 0 -25 15 -35 33 -10 17 -26 43
-37 57 l-19 25 6 -57 c5 -54 4 -58 -16 -58 -20 0 -21 5 -21 80 0 76 1 80 23
80 16 0 31 -14 54 -52 l32 -53 1 52 c0 45 4 55 28 62 1 1 2 -37 2 -84z m50 61
c0 -14 -5 -28 -12 -32 -8 -5 -9 -2 -5 9 3 10 2 17 -3 17 -6 0 -10 7 -10 15 0
8 7 15 15 15 9 0 15 -9 15 -24z m875 12 c14 -6 25 -15 25 -19 0 -16 -19 -19
-44 -8 -62 28 -107 -60 -50 -98 25 -16 28 -16 55 -1 37 21 52 3 19 -24 -31
-25 -63 -23 -99 8 -24 20 -31 34 -31 62 1 71 60 110 125 80z m179 -3 c-8 -19
15 -75 29 -75 7 0 7 -4 -1 -12 -7 -7 -12 -20 -12 -30 0 -12 -5 -16 -17 -11
-17 6 -17 5 -1 -12 10 -10 26 -19 37 -20 16 -1 19 3 15 21 -6 25 7 37 30 28
22 -9 20 -51 -2 -58 -28 -9 -105 3 -121 19 -12 12 -11 19 9 51 17 29 20 47 16
76 -5 30 -3 38 9 38 9 0 12 -6 9 -15z m-1484 -15 c13 -13 20 -33 20 -60 0 -57
-26 -80 -90 -80 l-50 0 0 80 0 80 50 0 c37 0 55 -5 70 -20z m570 10 c0 -5 -11
-10 -25 -10 -24 0 -25 -2 -25 -69 0 -52 -4 -70 -15 -75 -13 -4 -15 7 -15 69 0
73 -1 75 -25 75 -14 0 -25 5 -25 10 0 6 28 10 65 10 37 0 65 -4 65 -10z m190
-9 c24 -45 -4 -91 -56 -91 -17 0 -20 -5 -16 -25 3 -20 0 -25 -17 -25 -20 0
-21 5 -21 80 l0 80 50 0 c38 0 52 -4 60 -19z m133 -59 c21 -43 37 -81 37 -85
0 -10 -34 5 -43 20 -11 18 -83 17 -91 -2 -5 -15 -36 -21 -36 -7 0 4 14 39 32
79 21 45 39 72 49 73 10 0 29 -28 52 -78z m128 26 l34 -53 3 53 c2 37 7 52 18
52 11 0 14 -17 14 -80 0 -71 -2 -80 -19 -80 -11 0 -31 21 -54 58 l-36 57 -1
-57 c0 -45 -3 -58 -15 -58 -12 0 -15 16 -15 80 0 72 2 80 19 80 12 0 31 -19
52 -52z m129 -27 c0 -61 -3 -80 -15 -85 -13 -4 -15 8 -15 79 0 69 3 85 15 85
12 0 15 -15 15 -79z m377 54 c-8 -9 -14 -10 -19 -2 -9 16 0 27 17 21 11 -5 12
-9 2 -19z m53 16 c0 -6 -4 -13 -10 -16 -5 -3 -10 -15 -10 -26 0 -10 -7 -19
-15 -19 -8 0 -15 5 -15 10 0 6 5 10 10 10 6 0 10 11 10 25 0 16 6 25 15 25 8
0 15 -4 15 -9z"/>
<path d="M2335 1575 c-31 -30 -31 -40 0 -71 30 -30 51 -28 77 7 17 23 18 30 8
50 -25 46 -50 50 -85 14z"/>
<path d="M2150 1540 c0 -66 13 -76 58 -44 43 30 17 104 -36 104 -20 0 -22 -5
-22 -60z"/>
<path d="M2928 1570 c3 -21 10 -30 23 -30 11 0 22 7 25 15 8 19 -13 45 -35 45
-14 0 -17 -7 -13 -30z"/>
<path d="M3070 1551 c-14 -27 -9 -34 18 -29 19 3 19 5 8 27 l-13 24 -13 -22z"/>
</g>
</svg>
